<svg width="154" height="154" viewBox="0 0 154 154" fill="none" xmlns="http://www.w3.org/2000/svg">
<circle cx="77" cy="77" r="77" fill="#FFE9B9"/>
<rect x="28" y="51" width="94" height="64.3158" rx="2" fill="white"/>
<path d="M28.3049 115.118L62.0132 78.4163" stroke="#195154" stroke-width="1.5"/>
<path d="M121.598 114.813L87.9869 78.6227" stroke="#195154" stroke-width="1.5"/>
<path d="M28.2061 51.4121L73.9857 88.2721C74.7209 88.8641 75.77 88.8614 76.5023 88.2656L121.794 51.4121" stroke="#195154" stroke-width="1.5"/>
<circle cx="117" cy="53.5" r="14" fill="#FF7227"/>
<path fill-rule="evenodd" clip-rule="evenodd" d="M121.053 48.0713C121.403 48.3162 121.49 48.8017 121.248 49.1555L114.392 59.1666C114.15 59.5204 113.67 59.6086 113.32 59.3636C112.97 59.1187 112.882 58.6332 113.125 58.2794L119.98 48.2683C120.223 47.9145 120.703 47.8263 121.053 48.0713Z" fill="white"/>
<path fill-rule="evenodd" clip-rule="evenodd" d="M121.759 55.9686C120.941 55.9686 120.278 56.6314 120.278 57.4491C120.278 58.2668 120.941 58.9296 121.759 58.9296C122.576 58.9296 123.239 58.2668 123.239 57.4491C123.239 56.6314 122.576 55.9686 121.759 55.9686ZM118.773 57.4491C118.773 55.8001 120.11 54.4634 121.759 54.4634C123.408 54.4634 124.744 55.8001 124.744 57.4491C124.744 59.0981 123.408 60.4348 121.759 60.4348C120.11 60.4348 118.773 59.0981 118.773 57.4491Z" fill="white"/>
<path fill-rule="evenodd" clip-rule="evenodd" d="M112.149 48.5513C111.306 48.5513 110.623 49.2348 110.623 50.0781C110.623 50.9213 111.306 51.6048 112.149 51.6048C112.993 51.6048 113.676 50.9213 113.676 50.0781C113.676 49.2348 112.993 48.5513 112.149 48.5513ZM109.07 50.0781C109.07 48.3776 110.449 46.999 112.149 46.999C113.85 46.999 115.228 48.3776 115.228 50.0781C115.228 51.7786 113.85 53.1571 112.149 53.1571C110.449 53.1571 109.07 51.7786 109.07 50.0781Z" fill="white"/>
</svg>
